<svg width="512" height="512" viewBox="0 0 512 512" fill="none" xmlns="http://www.w3.org/2000/svg">
  <rect width="512" height="512" fill="#004d00"/>
  <path d="M256 80C335.5 80 400 144.5 400 224V432C400 432 329 385 256 385C183 385 112 432 112 432V224C112 144.5 176.5 80 256 80Z" fill="#00ff00" fill-opacity="0.6"/>
  <path fill-rule="evenodd" clip-rule="evenodd" d="M256 95C326.692 95 385 153.308 385 224V402.719C385 402.719 324.654 370 256 370C187.346 370 127 402.719 127 402.719V224C127 153.308 185.308 95 256 95ZM256 80C335.5 80 400 144.5 400 224V432C400 432 329 385 256 385C183 385 112 432 112 432V224C112 144.5 176.5 80 256 80Z" fill="#ffffff"/>
  <text x="50%" y="55%" dominant-baseline="middle" text-anchor="middle" font-family="monospace" font-size="50" font-weight="bold" fill="#ffffff">2HACKER</text>
  <rect width="512" height="512" fill-opacity="0.05" fill="url(#binary)" />
  <defs>
    <pattern id="binary" patternUnits="userSpaceOnUse" width="10" height="10">
      <text x="0" y="8" font-family="monospace" font-size="8" fill="#ffffff" fill-opacity="0.3">10</text>
    </pattern>
  </defs>
</svg>